<?xml version="1.0" encoding="utf-8"?>
<!-- Generator: Adobe Illustrator 16.0.0, SVG Export Plug-In . SVG Version: 6.00 Build 0)  -->
<!DOCTYPE svg PUBLIC "-//W3C//DTD SVG 1.1//EN" "http://www.w3.org/Graphics/SVG/1.1/DTD/svg11.dtd">
<svg version="1.1" id="Layer_1" xmlns="http://www.w3.org/2000/svg" xmlns:xlink="http://www.w3.org/1999/xlink" x="0px" y="0px"
	 width="25px" height="100px" viewBox="0 0 25 100" enable-background="new 0 0 25 100" xml:space="preserve">
<g>
	<rect fill="none" width="25" height="25"/>
	<g>
		<path fill="#45B549" d="M12.501,24.312c-6.515,0-11.813-5.299-11.813-11.812c0-6.514,5.299-11.812,11.813-11.812
			c6.513,0,11.812,5.298,11.812,11.812S19.014,24.312,12.501,24.312z"/>
		<g>
			<path fill="#39B44A" d="M12.501,0.875c6.409,0,11.625,5.215,11.625,11.625S18.91,24.125,12.501,24.125
				C6.09,24.125,0.876,18.91,0.876,12.5S6.09,0.875,12.501,0.875 M12.501,0.5C5.872,0.5,0.5,5.874,0.5,12.5
				c0,6.629,5.372,12,12.001,12c6.627,0,11.999-5.371,11.999-12C24.5,5.874,19.128,0.5,12.501,0.5L12.501,0.5z"/>
		</g>
		<g>
			<path fill="#22AB4B" d="M20.525,4.1c1.994,2.09,3.225,4.916,3.225,8.025c0,6.41-5.214,11.625-11.625,11.625
				c-3.107,0-5.936-1.23-8.023-3.227c2.119,2.218,5.098,3.602,8.399,3.602c6.411,0,11.625-5.214,11.625-11.625
				C24.126,9.198,22.742,6.219,20.525,4.1z"/>
		</g>
		<g>
			<g>
				<path fill="#50B748" d="M9.634,14.641c4.076-3.512,9.354-6.788,13.905-4.316c-1.02-5.165-5.58-9.074-11.038-9.074
					C6.296,1.249,1.25,6.297,1.25,12.501c0,1.504,0.298,2.938,0.835,4.249C3.871,17.198,6.646,17.21,9.634,14.641z"/>
			</g>
		</g>
		<g>
			<path fill="#7DC36F" d="M2.002,13.252C2.002,7.048,7.048,2,13.251,2c2.91,0,5.565,1.111,7.567,2.933
				c-2.062-2.262-5.026-3.684-8.317-3.684C6.296,1.249,1.25,6.297,1.25,12.501c0,3.292,1.422,6.259,3.684,8.317
				C3.114,18.818,2.002,16.163,2.002,13.252z"/>
		</g>
		<polygon fill="#229948" points="18.688,10.029 16.469,7.813 11.154,13.129 8.904,10.879 6.688,13.098 11.152,17.562 
			11.154,17.557 11.162,17.562 		"/>
		<polygon fill="#FFFFFF" points="18.312,9.654 16.092,7.438 10.777,12.754 8.529,10.504 6.312,12.722 10.775,17.188 10.777,17.182 
			10.786,17.188 		"/>
	</g>
</g>
<g>
	<rect y="25" fill="none" width="25" height="25"/>
	<g>
		<path fill="#D12028" d="M12.498,49.312c-6.512,0-11.811-5.299-11.811-11.812s5.299-11.812,11.811-11.812
			c6.516,0,11.814,5.299,11.814,11.812S19.014,49.312,12.498,49.312z"/>
		<path fill="#C12126" d="M12.498,25.876c6.412,0,11.623,5.214,11.623,11.624S18.91,49.125,12.498,49.125
			C6.09,49.125,0.875,43.91,0.875,37.5S6.09,25.876,12.498,25.876 M12.498,25.5C5.871,25.5,0.5,30.874,0.5,37.5
			c0,6.629,5.371,12,11.998,12S24.5,44.129,24.5,37.5C24.5,30.874,19.125,25.5,12.498,25.5L12.498,25.5z"/>
		<g>
			<path fill="#C82129" d="M20.527,29.1c1.992,2.091,3.221,4.916,3.221,8.026c0,6.409-5.213,11.624-11.623,11.624
				c-3.113,0-5.938-1.23-8.027-3.223C6.215,47.74,9.2,49.125,12.5,49.125c6.408,0,11.621-5.213,11.621-11.623
				C24.125,34.2,22.74,31.218,20.527,29.1z"/>
		</g>
		<g>
			<g>
				<path fill="#D5412F" d="M9.629,39.637c4.078-3.509,9.359-6.785,13.906-4.312c-1.018-5.166-5.578-9.076-11.039-9.076
					c-6.203,0-11.248,5.048-11.248,11.254c0,1.502,0.299,2.936,0.834,4.248C3.871,42.199,6.645,42.207,9.629,39.637z"/>
			</g>
		</g>
		<g>
			<path fill="#E07A5F" d="M2,38.252C2,32.048,7.043,27,13.252,27c2.908,0,5.564,1.114,7.564,2.934
				c-2.06-2.264-5.023-3.686-8.318-3.686c-6.205,0-11.248,5.048-11.248,11.254c0,3.291,1.422,6.258,3.684,8.316
				C3.113,43.818,2,41.162,2,38.252z"/>
		</g>
		<polygon fill="#AC1F24" points="18.5,40.875 15.125,37.5 18.498,34.124 16.248,31.878 12.871,35.252 9.496,31.876 7.25,34.124 
			10.625,37.5 7.25,40.875 9.496,43.125 12.871,39.748 16.248,43.125 		"/>
		<polygon fill="#FFFFFF" points="18.125,40.502 14.748,37.124 18.121,33.75 15.871,31.504 12.498,34.876 9.121,31.5 6.875,33.75 
			10.248,37.124 6.875,40.502 9.121,42.748 12.498,39.375 15.871,42.748 		"/>
	</g>
</g>
<g>
	<rect y="50" fill="none" width="25" height="25"/>
	<g>
		<path fill="#2880C2" d="M12.501,74.312c-6.515,0-11.813-5.299-11.813-11.812s5.299-11.812,11.813-11.812
			c6.513,0,11.812,5.299,11.812,11.812S19.014,74.312,12.501,74.312z"/>
		<g>
			<path fill="#2579BD" d="M12.501,50.875c6.409,0,11.625,5.215,11.625,11.625S18.91,74.125,12.501,74.125
				C6.09,74.125,0.876,68.91,0.876,62.5S6.09,50.875,12.501,50.875 M12.501,50.5C5.872,50.5,0.5,55.874,0.5,62.5
				c0,6.629,5.372,12,12.001,12c6.627,0,11.999-5.371,11.999-12C24.5,55.874,19.128,50.5,12.501,50.5L12.501,50.5z"/>
		</g>
		<g>
			<path fill="#1D5EAB" d="M20.525,54.1c1.994,2.09,3.225,4.916,3.225,8.025c0,6.41-5.214,11.625-11.625,11.625
				c-3.107,0-5.936-1.23-8.023-3.227c2.119,2.218,5.098,3.602,8.399,3.602c6.411,0,11.625-5.214,11.625-11.625
				C24.126,59.198,22.742,56.219,20.525,54.1z"/>
		</g>
		<g>
			<g>
				<path fill="#3385C6" d="M9.634,64.641c4.076-3.512,9.354-6.787,13.905-4.315c-1.02-5.165-5.58-9.074-11.038-9.074
					C6.296,51.249,1.25,56.297,1.25,62.501c0,1.504,0.298,2.938,0.835,4.249C3.871,67.198,6.646,67.21,9.634,64.641z"/>
			</g>
		</g>
		<g>
			<path fill="#6FA8D7" d="M2.002,63.252C2.002,57.048,7.048,52,13.251,52c2.91,0,5.565,1.111,7.567,2.934
				c-2.062-2.263-5.026-3.685-8.317-3.685c-6.205,0-11.251,5.048-11.251,11.252c0,3.292,1.422,6.259,3.684,8.317
				C3.114,68.818,2.002,66.163,2.002,63.252z"/>
		</g>
		<g>
			<g>
				<circle opacity="0.8" fill="#136AB3" enable-background="new    " cx="12.876" cy="58.578" r="1.643"/>
			</g>
			<rect x="11.375" y="61.46" opacity="0.8" fill="#136AB3" enable-background="new    " width="3" height="7.416"/>
		</g>
		<g>
			<g>
				<circle fill="#FFFFFF" cx="12.5" cy="58.201" r="1.643"/>
			</g>
			<rect x="11.001" y="61.085" fill="#FFFFFF" width="3" height="7.414"/>
		</g>
	</g>
</g>
<g>
	<path fill="#E69324" d="M12.501,99.312c-6.515,0-11.814-5.298-11.814-11.812s5.3-11.812,11.814-11.812
		c6.513,0,11.812,5.298,11.812,11.812S19.014,99.312,12.501,99.312z"/>
	<g>
		<path fill="#DD8B27" d="M12.501,75.875c6.409,0,11.625,5.215,11.625,11.625S18.91,99.125,12.501,99.125
			C6.09,99.125,0.876,93.91,0.876,87.5S6.09,75.875,12.501,75.875 M12.501,75.5C5.872,75.5,0.5,80.874,0.5,87.5
			c0,6.629,5.372,12,12.001,12c6.627,0,11.999-5.371,11.999-12C24.5,80.874,19.128,75.5,12.501,75.5L12.501,75.5z"/>
	</g>
	<g>
		<path fill="#C17A2C" d="M20.525,79.1c1.994,2.09,3.225,4.916,3.225,8.025c0,6.41-5.214,11.625-11.625,11.625
			c-3.108,0-5.936-1.23-8.024-3.226c2.12,2.217,5.098,3.601,8.4,3.601c6.411,0,11.625-5.214,11.625-11.625
			C24.126,84.198,22.742,81.219,20.525,79.1z"/>
	</g>
	<g>
		<g>
			<path fill="#F09826" d="M9.634,89.64c4.076-3.511,9.354-6.787,13.905-4.316c-1.02-5.165-5.58-9.074-11.038-9.074
				c-6.205,0-11.251,5.048-11.251,11.252c0,1.504,0.298,2.938,0.835,4.249C3.871,92.198,6.646,92.21,9.634,89.64z"/>
		</g>
	</g>
	<g>
		<path fill="#F9A535" d="M2.002,88.252C2.002,82.048,7.048,77,13.251,77c2.91,0,5.566,1.111,7.568,2.933
			c-2.061-2.262-5.027-3.684-8.318-3.684c-6.205,0-11.251,5.048-11.251,11.252c0,3.292,1.422,6.259,3.684,8.318
			C3.114,93.818,2.002,91.163,2.002,88.252z"/>
	</g>
	<g>
		<g>
			<g>
				<circle fill="#C17A2C" cx="12.688" cy="92.017" r="1.643"/>
			</g>
			<rect x="11.188" y="81.719" fill="#C17A2C" width="3" height="7.414"/>
		</g>
		<g>
			<circle fill="#FFFFFF" cx="12.312" cy="91.64" r="1.643"/>
			<rect x="10.813" y="81.342" fill="#FFFFFF" width="3" height="7.416"/>
		</g>
	</g>
</g>
</svg>
